<svg width="552" height="439" viewBox="0 0 552 439" fill="none" xmlns="http://www.w3.org/2000/svg">
<path d="M81.4704 167.777C-25.9667 229.802 -25.9667 330.372 81.4704 392.397C188.907 454.422 363.107 454.433 470.533 392.397C577.959 330.361 577.97 229.802 470.533 167.777C363.096 105.753 188.896 105.719 81.4704 167.777Z" fill="#F5F5F5"/>
<path d="M497.955 167.744C497.395 168.293 496.499 169.054 495.356 169.984C488.198 176.078 471.519 190.248 469.413 210.008L467.105 209.415C466.904 187.762 482.172 165.571 492.679 161.079C492.738 161.054 492.792 161.018 492.837 160.973C492.883 160.927 492.918 160.873 492.942 160.814C492.966 160.754 492.978 160.69 492.977 160.626C492.976 160.562 492.963 160.499 492.937 160.44C492.885 160.322 492.789 160.23 492.67 160.181C492.551 160.133 492.417 160.134 492.298 160.183C481.701 164.663 466.019 186.44 466.131 209.168L464.574 208.765C463.991 206.793 460.563 193.082 470.096 174.991C471.692 171.971 473.528 169.082 475.585 166.355L475.686 166.243C482.317 157.606 490.17 152.677 495.558 154.436C496.803 154.765 497.938 155.421 498.845 156.334C499.753 157.248 500.401 158.387 500.722 159.634C501.004 161.109 500.897 162.633 500.412 164.055C499.927 165.477 499.08 166.748 497.955 167.744Z" fill="white"/>
<path d="M485.689 147.491C481.377 153.674 476.907 160.07 474.835 165.795C472.721 168.561 470.847 171.503 469.234 174.588C466.558 179.593 464.619 184.958 463.476 190.517C462.602 157.617 480.649 131.819 486.16 127.215C486.209 127.174 486.249 127.124 486.278 127.068C486.308 127.011 486.325 126.949 486.331 126.885C486.336 126.822 486.328 126.758 486.309 126.697C486.289 126.637 486.257 126.58 486.216 126.532C486.133 126.434 486.015 126.373 485.888 126.36C485.76 126.347 485.633 126.385 485.533 126.465C479.663 131.349 459.869 159.779 462.748 195.278C462.741 195.296 462.741 195.316 462.748 195.334C462.235 199.726 462.478 204.174 463.465 208.485L460.743 207.656C460.015 205.192 454.347 184.323 459.007 156.676C461.482 141.901 470.04 127.551 479.36 122.466C483.673 120.136 487.896 119.833 491.918 121.581C492.848 121.898 493.692 122.426 494.384 123.123C495.076 123.821 495.596 124.67 495.906 125.602C497.373 130.744 491.694 138.877 485.689 147.491Z" fill="white"/>
<path d="M501.675 159.488C501.308 158.079 500.578 156.791 499.558 155.753C498.538 154.715 497.263 153.964 495.861 153.573C490.686 151.882 483.46 155.813 477.008 163.162C476.28 164.002 475.552 164.887 474.835 165.817C472.721 168.583 470.848 171.525 469.234 174.61C466.558 179.615 464.619 184.98 463.476 190.539C463.14 192.231 462.916 193.9 462.759 195.356C462.247 199.748 462.489 204.196 463.476 208.507C463.611 209.067 463.712 209.381 463.723 209.403C463.766 209.515 463.85 209.607 463.958 209.661H464.048L466.4 210.266L469.693 211.106C469.756 211.122 469.821 211.122 469.884 211.106C469.959 211.095 470.032 211.068 470.097 211.027C470.153 210.987 470.2 210.935 470.234 210.875C470.269 210.815 470.291 210.749 470.298 210.68C472.102 191.021 488.826 176.806 495.973 170.734C497.093 169.76 498.034 168.987 498.617 168.404C499.848 167.305 500.775 165.907 501.311 164.346C501.846 162.784 501.972 161.111 501.675 159.488ZM497.956 167.766C497.396 168.315 496.499 169.076 495.357 170.006C488.199 176.1 471.519 190.27 469.413 210.03L467.106 209.437L466.131 209.19L464.574 208.787C463.992 206.815 460.564 193.104 470.097 175.013C471.693 171.993 473.528 169.104 475.586 166.377L475.686 166.265C482.318 157.628 490.17 152.699 495.558 154.458C496.803 154.787 497.938 155.443 498.846 156.356C499.753 157.27 500.401 158.409 500.723 159.656C501 161.128 500.892 162.647 500.407 164.065C499.922 165.482 499.077 166.75 497.956 167.743V167.766Z" fill="#D9DDDF"/>
<path d="M492.679 161.124C482.172 165.605 466.915 187.807 467.106 209.46V209.897C467.11 210.013 467.071 210.126 466.996 210.215C466.922 210.304 466.817 210.362 466.702 210.378H466.624H466.422C466.34 210.338 466.271 210.276 466.222 210.199C466.172 210.122 466.145 210.033 466.142 209.941C466.142 209.729 466.142 209.516 466.142 209.303C466.03 186.574 481.713 164.82 492.31 160.317C492.429 160.268 492.562 160.268 492.681 160.316C492.801 160.364 492.897 160.457 492.948 160.575C492.974 160.683 492.961 160.797 492.912 160.897C492.863 160.998 492.781 161.078 492.679 161.124Z" fill="#D9DDDF"/>
<path d="M486.485 148.051C482.952 152.836 479.784 157.88 477.008 163.14C476.515 164.193 476.078 165.212 475.72 166.22C475.72 166.22 475.272 166.579 475.093 166.512C474.971 166.466 474.873 166.375 474.818 166.258C474.764 166.14 474.758 166.006 474.801 165.884V165.795C476.874 160.071 481.343 153.674 485.656 147.491C491.66 138.877 497.339 130.744 495.883 125.602C495.574 124.67 495.053 123.821 494.361 123.124C493.67 122.426 492.825 121.898 491.895 121.581C487.874 119.834 483.651 120.136 479.338 122.466C470.018 127.518 461.415 141.901 458.984 156.676C454.324 184.323 459.992 205.192 460.721 207.656L463.443 208.485L464.294 208.743C464.419 208.781 464.523 208.868 464.584 208.984C464.645 209.099 464.657 209.234 464.619 209.359C464.59 209.445 464.538 209.522 464.469 209.581C464.4 209.64 464.316 209.679 464.227 209.695C464.157 209.711 464.084 209.711 464.014 209.695H463.924L460.183 208.575C460.106 208.551 460.037 208.509 459.98 208.452C459.924 208.396 459.882 208.326 459.858 208.25C459.791 208.037 453.036 186.093 458.01 156.564C460.553 141.52 469.312 126.835 478.868 121.659C483.46 119.173 487.975 118.859 492.31 120.741C493.361 121.121 494.311 121.736 495.088 122.54C495.865 123.344 496.447 124.315 496.791 125.378C498.426 130.923 492.635 139.246 486.485 148.051Z" fill="#D9DDDF"/>
<path d="M486.16 127.216C480.649 131.82 462.636 157.618 463.476 190.517C463.476 192.063 463.6 193.632 463.723 195.2C463.736 195.323 463.701 195.446 463.626 195.543C463.551 195.641 463.441 195.707 463.32 195.726C463.199 195.734 463.08 195.697 462.985 195.622C462.89 195.548 462.826 195.442 462.804 195.323C462.797 195.305 462.797 195.285 462.804 195.267C459.925 159.768 479.719 131.338 485.589 126.454C485.689 126.374 485.817 126.337 485.944 126.349C486.072 126.362 486.189 126.423 486.272 126.521C486.313 126.573 486.342 126.633 486.358 126.697C486.374 126.761 486.377 126.828 486.367 126.893C486.356 126.958 486.333 127.02 486.297 127.076C486.262 127.131 486.215 127.179 486.16 127.216Z" fill="#D9DDDF"/>
<path d="M306.628 6.19033L296.165 12.2281C296.165 11.7577 296.255 11.2984 296.255 10.8391V7.8146C296.255 2.4265 292.469 0.242141 287.798 2.94179C285.792 4.17387 284.077 5.82458 282.768 7.78099C282.006 1.05988 276.685 -1.51655 270.233 2.18006C263.254 6.20153 257.598 16.0032 257.598 24.0685V28.5492C257.552 30.3583 257.916 32.1542 258.662 33.8029L249.991 38.8101C248.625 39.6962 247.488 40.8928 246.672 42.3023C245.856 43.7118 245.385 45.2942 245.298 46.9203C245.298 49.9112 247.393 51.121 249.991 49.6311L306.617 16.9329C307.981 16.0456 309.116 14.8484 309.93 13.439C310.744 12.0296 311.213 10.4479 311.299 8.82277C311.31 5.91028 309.216 4.70048 306.628 6.19033Z" fill="#EBEBEB"/>
<path d="M370.624 12.7435L362.783 17.2915C362.783 16.9442 362.85 16.597 362.85 16.2497V14.0093C362.85 9.94306 359.994 8.29638 356.477 10.3351C354.957 11.2614 353.657 12.5076 352.668 13.9869C352.097 8.86768 348.086 6.96336 343.214 9.78623C337.949 12.8219 333.67 20.2152 333.67 26.2978V29.6583C333.632 31.0256 333.912 32.3829 334.487 33.6238L327.889 37.3876C326.858 38.0549 326 38.9571 325.384 40.0203C324.769 41.0834 324.414 42.2772 324.35 43.5038C324.35 45.7442 325.929 46.674 327.889 45.5538L370.624 20.9097C371.653 20.2373 372.51 19.3324 373.125 18.268C373.74 17.2036 374.096 16.0096 374.164 14.7823C374.164 12.5083 372.574 11.6233 370.624 12.7435Z" fill="#EBEBEB"/>
<path d="M307.367 356.921L298.988 352.082L305.082 348.565C306.176 348.034 307.098 347.206 307.743 346.176C308.388 345.146 308.73 343.955 308.73 342.74C308.73 341.524 308.388 340.333 307.743 339.303C307.098 338.273 306.176 337.445 305.082 336.915L289.915 328.155C288.082 327.191 286.043 326.688 283.972 326.688C281.902 326.688 279.862 327.191 278.03 328.155L267.791 334.069L214.896 303.522C213.079 302.524 211.032 302.018 208.959 302.055C206.881 302.01 204.829 302.516 203.011 303.522L181.391 316.012C179.846 316.802 178.516 317.955 177.515 319.373C176.538 321.067 176.242 323.069 176.686 324.974L187.888 380.983C188.538 383.794 190.644 386.248 194.15 388.275L209.284 396.968C211.094 397.975 213.139 398.482 215.21 398.435C217.273 398.477 219.31 397.971 221.113 396.968L264.139 372.133L276.663 379.359C278.497 380.318 280.536 380.82 282.606 380.82C284.675 380.82 286.714 380.318 288.548 379.359L307.367 368.571C308.464 368.044 309.39 367.217 310.038 366.187C310.686 365.156 311.03 363.963 311.03 362.746C311.03 361.529 310.686 360.336 310.038 359.306C309.39 358.275 308.464 357.449 307.367 356.921ZM224.048 359.318L221.539 346.705L233.715 353.74L224.048 359.318Z" fill="#E0E0E0"/>
<path d="M66.8521 352.552C75.5128 355.712 83.755 359.917 91.3953 365.076C99.976 370.879 107.828 377.925 116.936 382.708C128.832 388.97 142.521 391.232 155.918 390.549C163.502 390.179 171.757 388.522 176.641 382.54C177.962 381.04 178.75 379.146 178.882 377.152C178.882 374.239 176.944 371.73 174.883 369.714C163.983 359.027 148.581 354.614 133.738 351.152C118.896 347.691 110.013 343.389 95.4616 335.615C89.2334 332.255 83.1396 328.704 76.8217 325.534L76.6649 325.455C73.5719 323.761 70.3897 322.236 67.1321 320.885C62.8418 319.305 59.2908 318.152 54.5412 318.51C49.7916 318.868 44.4596 318.79 41.1886 322.632C39.8371 324.252 38.9793 326.226 38.7172 328.319C38.4551 330.412 38.7997 332.536 39.71 334.439C44.3251 345.081 56.9272 348.934 66.8521 352.552Z" fill="#E0E0E0"/>
<path d="M391.594 269.77C387.797 267.362 383.607 264.83 379.127 262.243C374.646 259.655 370.165 257.213 365.785 254.883C359.867 251.854 353.65 249.448 347.235 247.703C340.38 245.836 333.313 244.857 326.209 244.79H325.29C318.116 244.829 310.972 245.716 304.007 247.434C296.031 249.433 288.382 252.56 281.29 256.72C273.571 261.201 268.139 265.682 264.7 270.353C261.104 275.293 259.368 280.289 259.536 285.218C259.823 290.405 261.847 295.345 265.282 299.242C268.976 303.582 273.313 307.329 278.142 310.355C282.062 312.841 286.353 315.429 290.89 318.05C295.426 320.671 299.851 323.091 303.94 325.253C309.864 328.274 316.084 330.677 322.501 332.422C329.351 334.295 336.415 335.274 343.516 335.335H344.502C351.676 335.299 358.82 334.412 365.785 332.691C373.761 330.693 381.411 327.566 388.503 323.405C396.232 318.924 401.665 314.443 405.092 309.772C408.699 304.843 410.436 299.836 410.257 294.907C409.972 289.719 407.948 284.778 404.51 280.882C400.795 276.543 396.44 272.796 391.594 269.77ZM365.83 299.433C365.438 300.026 364.351 301.27 361.349 302.995C359.094 304.339 356.646 305.329 354.09 305.93C352.273 306.331 350.418 306.537 348.557 306.546C348.064 306.546 347.571 306.546 347.078 306.546C344.789 306.403 342.53 305.958 340.357 305.224C337.965 304.404 335.642 303.392 333.412 302.2C325.263 298.042 317.336 293.461 309.664 288.477C307.92 287.433 306.31 286.18 304.869 284.747C304.129 284.062 303.584 283.192 303.29 282.227C303.29 282.092 303.167 281.655 303.772 280.726C304.164 280.143 305.25 278.9 308.252 277.163C310.505 275.817 312.954 274.831 315.511 274.24C317.247 273.853 319.02 273.654 320.798 273.646C321.347 273.646 321.919 273.646 322.4 273.702C324.69 273.871 326.948 274.33 329.121 275.069C331.539 275.887 333.901 276.864 336.19 277.992C344.334 282.227 352.343 286.842 360.016 291.67C361.791 292.751 363.447 294.016 364.956 295.445C365.669 296.056 366.187 296.862 366.446 297.764C366.424 297.932 366.513 298.391 365.852 299.433H365.83Z" fill="#E0E0E0"/>
<path d="M516.462 236.188L508.082 231.348L514.176 227.831C515.27 227.3 516.192 226.473 516.837 225.442C517.482 224.412 517.824 223.221 517.824 222.006C517.824 220.791 517.482 219.6 516.837 218.57C516.192 217.539 515.27 216.712 514.176 216.181L498.998 207.421C497.165 206.458 495.126 205.954 493.055 205.954C490.985 205.954 488.945 206.458 487.113 207.421L476.874 213.325L423.979 182.788C422.146 181.825 420.107 181.321 418.036 181.321C415.966 181.321 413.926 181.825 412.094 182.788L390.485 195.267C388.935 196.054 387.601 197.208 386.598 198.628C385.619 200.321 385.323 202.324 385.769 204.229L396.971 260.238C397.621 263.05 399.727 265.503 403.233 267.53L418.412 276.29C420.221 277.297 422.267 277.804 424.337 277.758C426.412 277.805 428.461 277.299 430.274 276.29L473.301 251.444L485.824 258.681C487.657 259.644 489.696 260.148 491.767 260.148C493.837 260.148 495.877 259.644 497.71 258.681L516.45 247.86C517.547 247.332 518.473 246.506 519.121 245.475C519.769 244.445 520.113 243.252 520.113 242.035C520.113 240.818 519.769 239.625 519.121 238.595C518.473 237.564 517.547 236.737 516.45 236.21L516.462 236.188ZM433.142 238.574L430.588 225.971L442.764 232.995L433.142 238.574Z" fill="#E0E0E0"/>
<path d="M395.29 355.52C395.587 355.382 395.91 355.31 396.237 355.31C396.564 355.31 396.887 355.382 397.183 355.52L400.891 357.671C401 357.714 401.094 357.788 401.161 357.883C401.229 357.979 401.267 358.092 401.272 358.208C401.265 358.326 401.226 358.44 401.159 358.537C401.092 358.633 400.999 358.71 400.891 358.757L384.312 368.335C384.018 368.482 383.694 368.558 383.366 368.558C383.037 368.558 382.713 368.482 382.419 368.335L359.814 355.285C359.706 355.236 359.613 355.159 359.544 355.063C359.475 354.967 359.433 354.854 359.422 354.736C359.434 354.618 359.477 354.506 359.545 354.41C359.614 354.313 359.707 354.237 359.814 354.187L376.124 344.777C376.416 344.63 376.738 344.553 377.065 344.553C377.392 344.553 377.714 344.63 378.006 344.777L381.714 346.917C381.823 346.964 381.917 347.04 381.986 347.136C382.056 347.233 382.097 347.347 382.106 347.466C382.096 347.584 382.054 347.697 381.985 347.794C381.916 347.891 381.822 347.967 381.714 348.015L370.937 354.232L374.724 356.416L384.727 350.636C385.021 350.489 385.345 350.413 385.673 350.413C386.002 350.413 386.326 350.489 386.62 350.636L390.328 352.775C390.436 352.823 390.529 352.899 390.596 352.996C390.663 353.093 390.702 353.207 390.709 353.324C390.701 353.442 390.661 353.555 390.594 353.652C390.527 353.748 390.435 353.825 390.328 353.873L380.313 359.642L384.234 361.883L395.29 355.52Z" fill="#1E2128"/>
<path d="M400.824 337.821C401.118 337.674 401.442 337.598 401.771 337.598C402.099 337.598 402.423 337.674 402.717 337.821L406.246 339.86C406.354 339.907 406.447 339.984 406.514 340.08C406.581 340.177 406.62 340.291 406.627 340.409C406.619 340.526 406.579 340.639 406.512 340.736C406.445 340.833 406.353 340.909 406.246 340.958L403.064 342.795C400.914 344.027 400.914 345.27 403.064 346.502L411.667 351.476C411.777 351.523 411.871 351.599 411.94 351.696C412.009 351.792 412.051 351.906 412.06 352.025C412.05 352.143 412.008 352.257 411.939 352.353C411.87 352.45 411.776 352.526 411.667 352.574L407.265 355.117C406.971 355.264 406.647 355.34 406.319 355.34C405.99 355.34 405.666 355.264 405.372 355.117L389.062 345.696C388.94 345.661 388.833 345.588 388.757 345.487C388.681 345.386 388.64 345.262 388.64 345.136C388.64 345.009 388.681 344.886 388.757 344.785C388.833 344.684 388.94 344.611 389.062 344.576L393.128 342.235C393.42 342.087 393.742 342.01 394.069 342.01C394.396 342.01 394.719 342.087 395.01 342.235L395.817 342.694C395.866 342.026 396.103 341.385 396.5 340.846C397.106 340.077 397.87 339.446 398.741 338.997L400.824 337.821Z" fill="#1E2128"/>
<path d="M417.761 328.041C418.05 327.886 418.375 327.808 418.702 327.817C419.034 327.809 419.362 327.886 419.655 328.041L423.183 330.08C423.291 330.127 423.384 330.204 423.451 330.3C423.518 330.397 423.557 330.511 423.564 330.629C423.556 330.746 423.517 330.859 423.45 330.956C423.382 331.053 423.29 331.129 423.183 331.178L420.002 333.015C417.851 334.247 417.851 335.487 420.002 336.734L428.605 341.696C428.714 341.741 428.809 341.817 428.876 341.915C428.944 342.012 428.982 342.127 428.986 342.245C428.978 342.362 428.938 342.476 428.871 342.572C428.804 342.669 428.712 342.746 428.605 342.794L424.203 345.337C423.909 345.484 423.585 345.56 423.256 345.56C422.927 345.56 422.603 345.484 422.309 345.337L406 335.916C405.892 335.871 405.8 335.796 405.733 335.701C405.666 335.606 405.626 335.494 405.619 335.378C405.625 335.261 405.664 335.147 405.732 335.05C405.799 334.953 405.892 334.877 406 334.829L410.066 332.488C410.354 332.332 410.679 332.255 411.007 332.264C411.335 332.256 411.659 332.333 411.948 332.488L412.754 332.948C412.803 332.279 413.04 331.639 413.438 331.099C414.044 330.33 414.808 329.7 415.678 329.251L417.761 328.041Z" fill="#1E2128"/>
<path d="M447.849 319.673C448.23 319.864 448.69 320.11 449.238 320.424C449.787 320.738 450.213 321.007 450.549 321.231C451.501 321.787 452.313 322.553 452.924 323.471C453.42 324.238 453.649 325.148 453.574 326.059C453.445 327.063 453.02 328.007 452.353 328.769C451.436 329.821 450.34 330.701 449.115 331.368C447.709 332.182 446.202 332.811 444.634 333.239C443.106 333.652 441.535 333.889 439.952 333.945C438.449 333.994 436.945 333.866 435.471 333.564C434.106 333.298 432.786 332.838 431.551 332.197C431.181 332.007 430.722 331.749 430.173 331.435C429.624 331.122 429.187 330.853 428.862 330.64C427.89 330.095 427.061 329.327 426.443 328.4C425.951 327.623 425.73 326.705 425.815 325.79C425.953 324.782 426.381 323.836 427.048 323.068C427.943 322.001 429.034 321.115 430.262 320.458C431.667 319.641 433.174 319.016 434.743 318.598C436.288 318.19 437.874 317.953 439.47 317.892C440.973 317.833 442.478 317.957 443.951 318.262C445.312 318.543 446.624 319.018 447.849 319.673ZM437.633 328.478C438.579 328.944 439.626 329.167 440.68 329.128C441.741 329.086 442.775 328.786 443.694 328.254C444.623 327.716 445.127 327.134 445.195 326.518C445.262 325.902 444.892 325.319 444.074 324.759C443.715 324.495 443.341 324.252 442.954 324.031C442.544 323.796 442.121 323.583 441.688 323.393C440.749 322.92 439.703 322.697 438.653 322.743C437.593 322.779 436.558 323.075 435.639 323.605C434.71 324.154 434.206 324.726 434.138 325.353C434.071 325.98 434.441 326.551 435.259 327.112C435.615 327.375 435.99 327.615 436.379 327.828C436.784 328.06 437.203 328.265 437.633 328.445V328.478Z" fill="#1E2128"/>
<path d="M456.945 305.414C457.239 305.267 457.563 305.19 457.892 305.19C458.221 305.19 458.545 305.267 458.839 305.414L462.378 307.453C462.486 307.501 462.578 307.578 462.645 307.674C462.712 307.771 462.751 307.884 462.759 308.001C462.753 308.119 462.714 308.233 462.646 308.33C462.579 308.427 462.486 308.503 462.378 308.55L459.186 310.387C457.05 311.62 457.05 312.859 459.186 314.106L467.8 319.069C467.907 319.117 467.999 319.194 468.066 319.291C468.133 319.387 468.173 319.5 468.181 319.618C468.174 319.736 468.135 319.849 468.068 319.946C468.001 320.043 467.908 320.119 467.8 320.167L463.387 322.709C463.098 322.865 462.773 322.942 462.446 322.934C462.118 322.943 461.793 322.866 461.505 322.709L445.15 313.3C445.041 313.252 444.948 313.176 444.879 313.079C444.81 312.983 444.768 312.869 444.758 312.751C444.767 312.632 444.808 312.519 444.877 312.422C444.946 312.325 445.041 312.249 445.15 312.202L449.205 309.861C449.499 309.714 449.823 309.638 450.152 309.638C450.48 309.638 450.804 309.714 451.098 309.861L451.905 310.32C451.948 309.651 452.186 309.009 452.588 308.472C453.191 307.7 453.956 307.069 454.828 306.624L456.945 305.414Z" fill="#1E2128"/>
<path d="M303.604 346.089L284.852 356.91C283.655 357.514 282.333 357.828 280.993 357.828C279.652 357.828 278.33 357.514 277.134 356.91L262.571 348.486L217.428 374.564C216.225 375.161 214.9 375.472 213.557 375.472C212.215 375.472 210.89 375.161 209.687 374.564L194.52 365.793C192.033 364.374 190.599 362.832 190.218 361.167L179.017 305.292C178.959 304.963 178.933 304.629 178.938 304.295C178.938 305.415 178.938 319.317 178.938 319.978C178.944 320.267 178.97 320.555 179.017 320.84L190.218 376.715C190.599 378.373 192.033 379.915 194.52 381.341L209.687 390.101C210.888 390.705 212.213 391.02 213.557 391.02C214.902 391.02 216.227 390.705 217.428 390.101L262.56 364.057L277.122 372.481C278.319 373.084 279.641 373.399 280.981 373.399C282.322 373.399 283.644 373.084 284.841 372.481L303.592 361.66C304.037 361.468 304.42 361.158 304.698 360.762C304.977 360.367 305.141 359.902 305.172 359.419V343.849C305.141 344.33 304.978 344.793 304.702 345.189C304.425 345.584 304.045 345.895 303.604 346.089Z" fill="#D9DDDF"/>
<path d="M302.887 339.423V323.853C302.852 324.334 302.686 324.797 302.408 325.191C302.129 325.586 301.749 325.897 301.308 326.093L288.986 333.195L302.282 340.868C302.651 340.475 302.866 339.962 302.887 339.423Z" fill="#D9DDDF"/>
<path d="M217.507 337.228L226.838 342.639L240.336 334.853L213.989 319.63L217.495 337.228H217.507Z" fill="#D9DDDF"/>
<path opacity="0.35" d="M217.507 337.228L226.838 342.639L240.336 334.853L213.989 319.63L217.495 337.228H217.507Z" fill="#1E2128"/>
<path opacity="0.2" d="M302.887 339.423V323.853C302.852 324.334 302.686 324.797 302.408 325.191C302.129 325.586 301.749 325.897 301.308 326.093L288.986 333.195L302.282 340.868C302.651 340.475 302.866 339.962 302.887 339.423Z" fill="#1E2128"/>
<path opacity="0.2" d="M303.604 346.089L284.852 356.91C283.67 357.558 282.335 357.875 280.987 357.829V373.444C282.335 373.491 283.67 373.173 284.852 372.526L303.604 361.705C304.048 361.513 304.431 361.203 304.71 360.807C304.989 360.412 305.152 359.947 305.183 359.464V343.894C305.143 344.368 304.975 344.823 304.697 345.21C304.419 345.596 304.041 345.9 303.604 346.089Z" fill="#1E2128"/>
<path opacity="0.25" d="M190.218 361.122L179.017 305.247C178.959 304.918 178.933 304.584 178.938 304.25C178.938 305.37 178.938 319.272 178.938 319.933C178.944 320.222 178.97 320.51 179.017 320.795L190.218 376.67C190.294 376.997 190.411 377.313 190.566 377.611V362.04C190.413 361.75 190.296 361.441 190.218 361.122Z" fill="#1E2128"/>
<path opacity="0.35" d="M213.563 375.438C212.215 375.474 210.88 375.161 209.687 374.531L194.52 365.76C192.861 364.957 191.483 363.672 190.566 362.074V377.645C191.483 379.243 192.861 380.527 194.52 381.33L209.687 390.09C210.876 390.731 212.213 391.048 213.563 391.009C213.705 391.025 213.848 391.025 213.989 391.009V375.438C213.848 375.455 213.705 375.455 213.563 375.438Z" fill="#1E2128"/>
<path opacity="0.2" d="M217.428 374.564C216.372 375.136 215.19 375.436 213.989 375.438V391.009C215.192 391.008 216.375 390.704 217.428 390.124L262.561 364.057V348.486L217.428 374.564Z" fill="#1E2128"/>
<path opacity="0.35" d="M277.123 356.91L262.561 348.486V364.057L277.123 372.481C278.301 373.13 279.633 373.447 280.976 373.399V357.829C279.633 357.876 278.301 357.559 277.123 356.91Z" fill="#1E2128"/>
<path d="M284.852 356.91C283.653 357.513 282.33 357.828 280.988 357.828C279.645 357.828 278.322 357.513 277.123 356.91L262.56 348.486L217.428 374.564C216.227 375.161 214.905 375.471 213.564 375.471C212.223 375.471 210.9 375.161 209.699 374.564L194.52 365.804C192.049 364.37 190.618 362.828 190.23 361.177L179.028 305.303C178.804 304.442 178.904 303.529 179.308 302.737C179.966 301.905 180.8 301.228 181.75 300.755L203.359 288.276C204.548 287.637 205.885 287.324 207.235 287.368C208.577 287.324 209.907 287.637 211.088 288.276L266.067 320.011L278.389 312.909C279.588 312.305 280.911 311.99 282.253 311.99C283.596 311.99 284.919 312.305 286.118 312.909L301.297 321.669C301.766 321.826 302.174 322.127 302.463 322.529C302.751 322.931 302.907 323.414 302.907 323.909C302.907 324.404 302.751 324.886 302.463 325.288C302.174 325.69 301.766 325.992 301.297 326.149L288.974 333.262L303.537 341.686C304.001 341.849 304.403 342.153 304.687 342.554C304.971 342.955 305.124 343.435 305.124 343.927C305.124 344.418 304.971 344.898 304.687 345.299C304.403 345.701 304.001 346.004 303.537 346.167L284.852 356.91ZM240.325 334.842L213.989 319.675L219.433 346.951L240.325 334.842Z" fill="#D9DDDF"/>
<path d="M404.398 276.962C404.331 280.715 402.852 284.546 400.007 288.444C396.96 292.634 391.856 296.793 384.694 300.923C377.946 304.888 370.666 307.868 363.075 309.772C356.114 311.504 348.963 312.351 341.791 312.293C335.046 312.234 328.336 311.304 321.829 309.526C315.684 307.862 309.73 305.56 304.063 302.659C299.963 300.509 295.684 298.179 291.181 295.546C286.678 292.914 282.5 290.438 278.59 287.951C274.129 285.165 270.124 281.708 266.716 277.702C263.856 274.515 262.165 270.45 261.922 266.175C262 268.639 261.821 279.012 261.922 281.745C262.165 286.02 263.856 290.085 266.716 293.272C270.124 297.279 274.129 300.736 278.59 303.522C282.496 306.009 286.693 308.54 291.181 311.117C295.662 313.704 299.963 316.079 304.063 318.241C309.733 321.134 315.686 323.431 321.829 325.097C328.336 326.874 335.046 327.804 341.791 327.863C348.963 327.921 356.114 327.074 363.075 325.343C370.666 323.439 377.946 320.459 384.694 316.494C391.863 312.356 396.968 308.197 400.007 304.015C403.065 299.836 404.488 295.737 404.376 291.749C404.297 289.43 404.443 280.468 404.398 276.962Z" fill="#D9DDDF"/>
<path opacity="0.35" d="M345.633 312.214C344.356 312.214 343.079 312.315 341.813 312.293C335.068 312.234 328.358 311.304 321.851 309.526C315.706 307.862 309.752 305.56 304.085 302.659C299.985 300.509 295.706 298.179 291.203 295.546C286.7 292.914 282.522 290.438 278.612 287.951C274.151 285.165 270.146 281.708 266.738 277.702C263.878 274.515 262.187 270.45 261.944 266.175C262.022 268.639 261.843 279.012 261.944 281.745C262.187 286.02 263.878 290.085 266.738 293.272C270.146 297.279 274.151 300.736 278.612 303.522C282.518 306.009 286.715 308.54 291.203 311.117C295.684 313.704 299.985 316.079 304.085 318.241C309.755 321.134 315.708 323.431 321.851 325.097C328.358 326.874 335.068 327.804 341.813 327.863C343.079 327.863 344.356 327.863 345.633 327.785V312.214Z" fill="#1E2128"/>
<path opacity="0.2" d="M404.399 276.963C404.332 280.716 402.853 284.547 400.008 288.445C396.961 292.634 391.856 296.794 384.695 300.924C377.947 304.889 370.667 307.869 363.075 309.773C357.363 311.174 351.523 311.992 345.645 312.215V327.786C351.522 327.557 357.361 326.739 363.075 325.344C370.667 323.44 377.947 320.46 384.695 316.494C391.864 312.357 396.968 308.197 400.008 304.015C403.066 299.837 404.488 295.737 404.376 291.749C404.298 289.431 404.444 280.469 404.399 276.963Z" fill="#1E2128"/>
<path d="M300.232 268.695C301.099 269.582 302.031 270.402 303.022 271.148C303.503 270.834 303.985 270.521 304.523 270.207C307.153 268.668 310 267.535 312.969 266.846C315.625 266.256 318.353 266.052 321.068 266.241C323.703 266.433 326.304 266.956 328.808 267.799C331.432 268.688 333.999 269.74 336.493 270.946C344.79 275.315 352.806 279.949 360.543 284.848C361.551 285.475 362.481 286.125 363.332 286.752C365.037 285.751 366.519 284.413 367.69 282.82C368.673 281.459 369.076 279.763 368.81 278.104C368.402 276.378 367.48 274.816 366.166 273.624C364.442 271.983 362.545 270.533 360.509 269.3C352.765 264.371 344.76 259.729 336.493 255.376C334.01 254.159 331.455 253.096 328.842 252.194C326.337 251.352 323.737 250.829 321.101 250.637C318.386 250.446 315.657 250.654 313.002 251.253C310.032 251.935 307.183 253.069 304.556 254.614C302.266 255.783 300.264 257.448 298.698 259.487C298.201 260.147 297.845 260.902 297.652 261.706C297.459 262.51 297.434 263.344 297.577 264.158C298.041 265.88 298.957 267.447 300.232 268.695Z" fill="#D9DDDF"/>
<path opacity="0.35" d="M300.232 268.695C301.099 269.582 302.031 270.402 303.022 271.148C303.503 270.834 303.985 270.521 304.523 270.207C307.153 268.668 310 267.535 312.969 266.846C315.625 266.256 318.353 266.052 321.068 266.241C323.703 266.433 326.304 266.956 328.808 267.799C331.432 268.688 333.999 269.74 336.493 270.946C344.79 275.315 352.806 279.949 360.543 284.848C361.551 285.475 362.481 286.125 363.332 286.752C365.037 285.751 366.519 284.413 367.69 282.82C368.673 281.459 369.076 279.763 368.81 278.104C368.402 276.378 367.48 274.816 366.166 273.624C364.442 271.983 362.545 270.533 360.509 269.3C352.765 264.371 344.76 259.729 336.493 255.376C334.01 254.159 331.455 253.096 328.842 252.194C326.337 251.352 323.737 250.829 321.101 250.637C318.386 250.446 315.657 250.654 313.002 251.253C310.032 251.935 307.183 253.069 304.556 254.614C302.266 255.783 300.264 257.448 298.698 259.487C298.201 260.147 297.845 260.902 297.652 261.706C297.459 262.51 297.434 263.344 297.577 264.158C298.041 265.88 298.957 267.447 300.232 268.695Z" fill="#1E2128"/>
<path d="M281.604 241.419C288.349 237.45 295.63 234.47 303.223 232.57C310.185 230.843 317.335 229.997 324.507 230.049C331.255 230.113 337.968 231.043 344.48 232.816C350.627 234.484 356.585 236.785 362.257 239.683C366.551 241.923 370.942 244.346 375.43 246.953C379.919 249.559 384.026 252.038 387.752 254.391C392.212 257.18 396.216 260.637 399.626 264.641C402.478 267.833 404.171 271.894 404.432 276.167C404.574 280.163 403.118 284.27 400.063 288.489C397.009 292.709 391.875 296.853 384.661 300.923C377.913 304.889 370.633 307.869 363.041 309.773C356.08 311.499 348.93 312.346 341.758 312.293C335.008 312.232 328.295 311.298 321.785 309.515C315.644 307.855 309.693 305.557 304.03 302.66C299.93 300.509 295.636 298.142 291.148 295.558C286.659 292.974 282.459 290.438 278.546 287.952C274.089 285.159 270.085 281.703 266.672 277.702C263.817 274.506 262.124 270.441 261.866 266.164C261.732 262.176 263.188 258.069 266.235 253.842C269.282 249.615 274.405 245.474 281.604 241.419ZM360.51 269.267C352.765 264.368 344.748 259.742 336.459 255.388C333.975 254.163 331.416 253.096 328.797 252.195C326.296 251.354 323.699 250.827 321.068 250.627C318.352 250.445 315.624 250.656 312.969 251.254C309.998 251.936 307.15 253.069 304.523 254.615C302.232 255.784 300.231 257.449 298.664 259.488C298.164 260.146 297.806 260.902 297.613 261.706C297.421 262.51 297.397 263.345 297.544 264.159C297.995 265.868 298.91 267.418 300.187 268.64C301.872 270.319 303.752 271.79 305.788 273.02C313.559 278.061 321.586 282.693 329.839 286.899C332.252 288.19 334.765 289.284 337.355 290.17C341.361 291.549 345.619 292.038 349.832 291.603C354.046 291.168 358.114 289.818 361.753 287.649C364.052 286.483 366.058 284.814 367.623 282.765C368.604 281.407 369.007 279.715 368.743 278.06C368.337 276.33 367.411 274.766 366.088 273.58C364.39 271.944 362.52 270.498 360.51 269.267Z" fill="#D9DDDF"/>
<path d="M512.721 225.355L493.969 236.176C492.772 236.78 491.45 237.094 490.11 237.094C488.769 237.094 487.448 236.78 486.251 236.176L471.688 227.741L426.59 253.785C425.391 254.389 424.067 254.704 422.725 254.704C421.383 254.704 420.059 254.389 418.86 253.785L403.682 245.026C401.195 243.603 399.773 242.057 399.38 240.399L388.179 184.524C388.122 184.195 388.095 183.861 388.1 183.527C388.1 184.648 388.1 198.549 388.1 199.21C388.107 199.499 388.133 199.787 388.179 200.072L399.38 255.936C399.773 257.605 401.195 259.14 403.682 260.574L418.86 269.334C420.059 269.937 421.383 270.252 422.725 270.252C424.067 270.252 425.391 269.937 426.59 269.334L471.688 243.289L486.251 251.724C487.448 252.328 488.769 252.642 490.11 252.642C491.45 252.642 492.772 252.328 493.969 251.724L512.721 240.903C513.165 240.712 513.548 240.401 513.827 240.006C514.106 239.611 514.269 239.146 514.3 238.663V223.115C514.268 223.597 514.104 224.062 513.825 224.457C513.547 224.852 513.164 225.163 512.721 225.355Z" fill="#D9DDDF"/>
<path d="M512.015 218.679V203.108C511.979 203.59 511.813 204.053 511.535 204.447C511.257 204.842 510.877 205.153 510.435 205.349L498.113 212.451L511.41 220.113C511.783 219.727 511.999 219.216 512.015 218.679Z" fill="#D9DDDF"/>
<path d="M426.623 216.495L435.954 221.905L449.452 214.12L423.105 198.896L426.612 216.495H426.623Z" fill="#D9DDDF"/>
<path opacity="0.35" d="M426.623 216.495L435.954 221.905L449.452 214.12L423.105 198.896L426.612 216.495H426.623Z" fill="#1E2128"/>
<path opacity="0.2" d="M512.015 218.679V203.108C511.979 203.59 511.813 204.053 511.535 204.447C511.257 204.842 510.877 205.153 510.435 205.349L498.113 212.451L511.41 220.113C511.783 219.727 511.999 219.216 512.015 218.679Z" fill="#1E2128"/>
<path opacity="0.2" d="M512.721 225.355L493.969 236.176C492.786 236.823 491.451 237.141 490.104 237.094V252.665C491.451 252.711 492.786 252.394 493.969 251.746L512.721 240.925C513.165 240.734 513.548 240.423 513.826 240.028C514.105 239.633 514.269 239.168 514.3 238.685V223.114C514.268 223.597 514.104 224.061 513.825 224.456C513.546 224.851 513.164 225.162 512.721 225.355Z" fill="#1E2128"/>
<path opacity="0.25" d="M399.336 240.399L388.134 184.524C388.077 184.195 388.05 183.861 388.055 183.527C388.055 184.648 388.055 198.549 388.055 199.21C388.062 199.499 388.088 199.787 388.134 200.072L399.336 255.936C399.408 256.269 399.529 256.59 399.694 256.888V241.318C399.533 241.029 399.412 240.72 399.336 240.399Z" fill="#1E2128"/>
<path opacity="0.35" d="M422.68 254.704C421.333 254.743 420 254.426 418.815 253.785L403.636 245.025C401.978 244.226 400.603 242.94 399.693 241.34V256.944C400.603 258.544 401.978 259.83 403.636 260.629L418.815 269.389C420 270.03 421.333 270.347 422.68 270.308C422.821 270.324 422.964 270.324 423.105 270.308V254.704C422.964 254.72 422.821 254.72 422.68 254.704Z" fill="#1E2128"/>
<path opacity="0.2" d="M426.544 253.786C425.492 254.367 424.308 254.671 423.105 254.67V270.241C424.308 270.242 425.492 269.938 426.544 269.356L471.643 243.312V227.741L426.544 253.786Z" fill="#1E2128"/>
<path opacity="0.35" d="M486.25 236.176L471.688 227.741V243.312L486.25 251.747C487.428 252.396 488.76 252.713 490.104 252.665V237.095C488.76 237.143 487.428 236.825 486.25 236.176Z" fill="#1E2128"/>
<path d="M493.98 236.176C492.792 236.82 491.454 237.133 490.104 237.083C488.758 237.126 487.425 236.813 486.239 236.176L471.677 227.752L426.578 253.785C425.377 254.382 424.054 254.693 422.713 254.693C421.372 254.693 420.05 254.382 418.849 253.785L403.67 245.026C401.198 243.592 399.768 242.05 399.38 240.399L388.178 184.524C387.959 183.663 388.059 182.752 388.458 181.959C389.116 181.126 389.95 180.449 390.9 179.976L412.508 167.497C413.709 166.894 415.035 166.579 416.379 166.579C417.723 166.579 419.048 166.894 420.249 167.497L475.216 199.232L487.539 192.119C488.739 191.522 490.062 191.212 491.403 191.212C492.744 191.212 494.067 191.522 495.268 192.119L510.435 200.935C510.904 201.093 511.312 201.394 511.601 201.796C511.89 202.198 512.046 202.68 512.046 203.175C512.046 203.67 511.89 204.153 511.601 204.555C511.312 204.957 510.904 205.258 510.435 205.416L498.113 212.529L512.675 220.953C513.139 221.116 513.541 221.419 513.826 221.82C514.11 222.222 514.263 222.701 514.263 223.193C514.263 223.685 514.11 224.165 513.826 224.566C513.541 224.967 513.139 225.27 512.675 225.433L493.98 236.176ZM449.452 214.108L423.105 198.907L428.55 226.173L449.452 214.108Z" fill="#D9DDDF"/>
<path d="M344.613 158.883C345.588 154.335 327.026 165.056 326.052 169.603L332.011 185.701C332.227 186.166 332.579 186.557 333.019 186.821C334.33 187.627 339.169 190.361 339.584 190.618C339.919 190.824 340.297 190.95 340.689 190.988C341.081 191.026 341.476 190.975 341.845 190.838C342.214 190.701 342.547 190.482 342.819 190.197C343.091 189.913 343.294 189.57 343.415 189.196L351.166 162.614C351.659 160.429 344.613 158.883 344.613 158.883Z" fill="#D9DDDF"/>
<path opacity="0.25" d="M344.613 158.883C345.588 154.335 327.026 165.056 326.052 169.603L332.011 185.701C332.227 186.166 332.579 186.557 333.019 186.821C334.33 187.627 339.169 190.361 339.584 190.618C339.919 190.824 340.297 190.95 340.689 190.988C341.081 191.026 341.476 190.975 341.845 190.838C342.214 190.701 342.547 190.482 342.819 190.197C343.091 189.913 343.294 189.57 343.415 189.196L351.166 162.614C351.659 160.429 344.613 158.883 344.613 158.883Z" fill="#1E2128"/>
<path d="M402.672 38.2382L247.784 127.595C247.058 128.067 246.453 128.703 246.019 129.453C245.585 130.202 245.334 131.043 245.286 131.908V217.042C245.334 217.907 245.585 218.748 246.019 219.498C246.453 220.247 247.058 220.884 247.784 221.355L249.341 222.24C250.113 222.633 250.967 222.837 251.834 222.837C252.7 222.837 253.554 222.633 254.326 222.24L409.225 132.782C409.951 132.308 410.554 131.669 410.986 130.917C411.418 130.166 411.667 129.324 411.712 128.458V43.4247C411.667 42.5607 411.418 41.7197 410.986 40.9702C410.554 40.2207 409.95 39.584 409.225 39.112L407.668 38.227C406.893 37.837 406.037 37.6348 405.169 37.6367C404.301 37.6387 403.446 37.8447 402.672 38.2382Z" fill="#D9DDDF"/>
<path opacity="0.25" d="M402.672 38.2382L247.784 127.595C247.058 128.067 246.453 128.703 246.019 129.453C245.585 130.202 245.334 131.043 245.286 131.908V217.042C245.334 217.907 245.585 218.748 246.019 219.498C246.453 220.247 247.058 220.884 247.784 221.355L249.341 222.24C250.113 222.633 250.967 222.837 251.834 222.837C252.7 222.837 253.554 222.633 254.326 222.24L409.225 132.782C409.951 132.308 410.554 131.669 410.986 130.917C411.418 130.166 411.667 129.324 411.712 128.458V43.4247C411.667 42.5607 411.418 41.7197 410.986 40.9702C410.554 40.2207 409.95 39.584 409.225 39.112L407.668 38.227C406.893 37.837 406.037 37.6348 405.169 37.6367C404.301 37.6387 403.446 37.8447 402.672 38.2382Z" fill="#1E2128"/>
<path d="M411.723 43.4249V44.3995C411.721 43.9957 411.612 43.5998 411.408 43.2512C411.205 42.9025 410.913 42.6135 410.563 42.4128C410.212 42.2121 409.816 42.1069 409.412 42.1076C409.008 42.1082 408.612 42.2149 408.262 42.4167L255.267 130.811C254.22 131.4 253.352 132.264 252.758 133.309V133.387L246.037 129.5C246.461 128.725 247.078 128.073 247.829 127.607L402.717 38.2384C403.492 37.8536 404.345 37.6533 405.209 37.6533C406.074 37.6533 406.927 37.8536 407.702 38.2384L409.259 39.1234C409.977 39.5981 410.574 40.2344 411.002 40.9814C411.43 41.7284 411.677 42.5653 411.723 43.4249Z" fill="#D9DDDF"/>
<path opacity="0.45" d="M411.723 43.4249V44.3995C411.721 43.9957 411.612 43.5998 411.408 43.2512C411.205 42.9025 410.913 42.6135 410.563 42.4128C410.212 42.2121 409.816 42.1069 409.412 42.1076C409.008 42.1082 408.612 42.2149 408.262 42.4167L255.267 130.811C254.22 131.4 253.352 132.264 252.758 133.309V133.387L246.037 129.5C246.461 128.725 247.078 128.073 247.829 127.607L402.717 38.2384C403.492 37.8536 404.345 37.6533 405.209 37.6533C406.074 37.6533 406.927 37.8536 407.702 38.2384L409.259 39.1234C409.977 39.5981 410.574 40.2344 411.002 40.9814C411.43 41.7284 411.677 42.5653 411.723 43.4249Z" fill="white"/>
<path d="M409.416 42.9879C409.171 42.9887 408.932 43.0544 408.721 43.1784L255.715 131.583C254.81 132.106 254.059 132.857 253.536 133.761C253.013 134.666 252.737 135.692 252.735 136.736V219.72C252.735 220.19 252.836 221.288 253.744 221.288C254.142 221.27 254.529 221.147 254.864 220.93L334.251 175.091L339.214 188.859C339.425 189.338 339.778 189.742 340.224 190.016C340.67 190.291 341.189 190.424 341.713 190.397C342.236 190.37 342.739 190.185 343.155 189.867C343.571 189.548 343.88 189.11 344.042 188.612L350.763 165.559L407.892 132.58C409.965 131.393 410.883 130.183 410.883 128.671V44.3994C410.885 44.2088 410.848 44.0198 410.774 43.8441C410.7 43.6683 410.591 43.5095 410.454 43.3774C410.316 43.2452 410.153 43.1425 409.975 43.0756C409.796 43.0086 409.606 42.9788 409.416 42.9879Z" fill="white"/>
<path d="M253.744 222.218C252.624 222.218 251.851 221.254 251.851 219.765V136.736C251.854 135.536 252.171 134.358 252.77 133.319C253.369 132.279 254.23 131.414 255.267 130.811L408.273 42.4279C408.613 42.2266 408.999 42.1184 409.394 42.1143C409.983 42.1285 410.545 42.3691 410.962 42.7862C411.379 43.2033 411.62 43.7649 411.634 44.3546V128.626C411.634 131.046 409.662 132.457 408.195 133.309L351.502 166.208L344.882 188.915C344.674 189.594 344.262 190.193 343.702 190.631C343.143 191.069 342.462 191.325 341.753 191.364C341.043 191.403 340.339 191.224 339.735 190.85C339.13 190.476 338.655 189.925 338.374 189.273L333.747 176.458L255.278 221.702C254.822 222.008 254.292 222.186 253.744 222.218ZM409.45 43.9402C409.359 43.9411 409.271 43.9642 409.192 44.0074L256.197 132.39C255.426 132.835 254.785 133.475 254.339 134.246C253.892 135.016 253.656 135.891 253.654 136.781V219.765C253.633 220.005 253.684 220.247 253.8 220.459C254.02 220.409 254.232 220.326 254.427 220.213L334.733 173.837L340.032 188.612C340.171 188.917 340.4 189.172 340.688 189.344C340.976 189.516 341.31 189.597 341.645 189.576C341.99 189.56 342.322 189.439 342.597 189.228C342.871 189.018 343.074 188.729 343.179 188.399L349.99 165.021L350.293 164.842L407.422 131.864C409.662 130.575 409.976 129.556 409.976 128.727V44.3994C409.975 44.3288 409.959 44.2591 409.93 44.1948C409.9 44.1305 409.858 44.073 409.806 44.0257C409.753 43.9784 409.691 43.9424 409.624 43.92C409.557 43.8976 409.486 43.8892 409.416 43.8953L409.45 43.9402Z" fill="#D9DDDF"/>
<path d="M270.053 158.367C270.152 155.666 270.527 152.982 271.174 150.358C271.811 147.728 272.739 145.177 273.941 142.752C275.118 140.393 276.582 138.189 278.298 136.188C279.98 134.229 281.979 132.566 284.213 131.27C285.982 130.135 288.017 129.483 290.116 129.377C291.71 129.33 293.265 129.873 294.485 130.9C295.795 132.085 296.752 133.608 297.252 135.303C297.947 137.477 298.324 139.741 298.372 142.024C298.439 143.995 298.473 146.068 298.473 148.263C298.473 150.459 298.473 152.509 298.372 154.458C298.272 157.159 297.897 159.842 297.252 162.467C296.618 165.105 295.69 167.664 294.485 170.096C293.321 172.472 291.852 174.686 290.116 176.682C288.432 178.62 286.437 180.263 284.213 181.544C282.444 182.696 280.405 183.368 278.298 183.493C276.705 183.543 275.151 182.996 273.941 181.958C272.632 180.741 271.676 179.193 271.174 177.478C270.48 175.302 270.103 173.039 270.053 170.756C269.997 168.886 269.964 166.858 269.964 164.674C269.964 162.489 269.997 160.384 270.053 158.367ZM289.959 158.95C289.959 158.098 290.026 157.146 290.06 156.104C290.094 155.063 290.06 154.01 290.06 152.934C290.06 151.859 290.06 150.84 290.06 149.854C290.06 148.868 289.993 147.994 289.959 147.221C289.925 146.227 289.767 145.241 289.489 144.286C289.284 143.56 288.898 142.897 288.369 142.36C287.897 141.911 287.272 141.659 286.621 141.654C285.747 141.694 284.899 141.969 284.168 142.449C283.243 142.983 282.416 143.673 281.726 144.488C281.026 145.315 280.439 146.23 279.978 147.21C279.49 148.223 279.114 149.286 278.858 150.38C278.6 151.53 278.439 152.699 278.376 153.875C278.32 154.693 278.276 155.612 278.264 156.62C278.253 157.628 278.264 158.67 278.264 159.745C278.264 160.82 278.264 161.862 278.264 162.87C278.264 163.879 278.264 164.797 278.376 165.604C278.331 167.362 278.884 169.084 279.945 170.488C280.863 171.496 282.26 171.458 284.134 170.376C286.004 169.302 287.472 167.645 288.312 165.66C289.261 163.533 289.819 161.252 289.959 158.927V158.95Z" fill="#1E2128"/>
<path d="M326.791 135.438C326.791 136.11 326.791 137.006 326.791 138.093C326.791 139.179 326.791 140.098 326.791 140.815C326.72 143.13 326.386 145.43 325.795 147.67C325.202 149.946 324.365 152.151 323.296 154.246C322.264 156.289 320.977 158.194 319.465 159.914C318.033 161.558 316.341 162.958 314.458 164.059C312.95 165.018 311.224 165.581 309.44 165.694C308.054 165.762 306.691 165.319 305.609 164.451C304.462 163.47 303.602 162.196 303.122 160.765C302.476 158.929 302.136 156.999 302.114 155.052C302.114 154.369 302.114 153.484 302.114 152.386C302.114 151.288 302.114 150.392 302.114 149.675C302.159 147.368 302.479 145.074 303.066 142.842C303.663 140.561 304.508 138.352 305.586 136.256C306.641 134.206 307.934 132.288 309.44 130.543C310.867 128.876 312.563 127.46 314.458 126.353C315.962 125.4 317.687 124.852 319.465 124.762C320.857 124.729 322.218 125.176 323.319 126.028C324.479 127.005 325.344 128.285 325.817 129.725C326.439 131.566 326.768 133.494 326.791 135.438ZM310.28 150C310.37 151.725 310.784 152.868 311.523 153.439C312.263 154.011 313.248 153.943 314.458 153.249C315.724 152.494 316.741 151.384 317.382 150.056C318.145 148.542 318.569 146.879 318.625 145.183C318.681 144.455 318.715 143.649 318.715 142.764C318.715 141.879 318.715 141.106 318.625 140.434C318.536 138.724 318.121 137.581 317.382 137.006C316.643 136.435 315.668 136.491 314.458 137.197C313.194 137.953 312.176 139.057 311.523 140.378C310.762 141.897 310.337 143.563 310.28 145.262C310.224 145.99 310.19 146.797 310.19 147.681C310.19 148.566 310.224 149.328 310.28 149.989V150Z" fill="#1E2128"/>
<path d="M345.297 146.258C344.584 146.698 343.799 147.009 342.978 147.177C342.409 147.297 341.822 147.297 341.253 147.177C340.802 147.05 340.385 146.824 340.032 146.516C339.724 146.255 339.45 145.958 339.214 145.631V160.507C339.207 161.038 339.084 161.562 338.856 162.041C338.684 162.473 338.383 162.841 337.993 163.094L332.28 166.455C332.153 166.549 331.995 166.594 331.837 166.582C331.678 166.57 331.53 166.501 331.418 166.388C331.283 166.236 331.18 166.059 331.116 165.866C331.053 165.673 331.03 165.47 331.048 165.268V119.351C331.055 118.818 331.181 118.294 331.418 117.817C331.589 117.385 331.891 117.017 332.28 116.764L337.769 113.593C337.897 113.499 338.055 113.454 338.213 113.466C338.372 113.479 338.52 113.548 338.632 113.661C338.763 113.814 338.863 113.992 338.924 114.184C338.986 114.377 339.008 114.58 338.99 114.781V116.394C339.259 115.767 339.562 115.106 339.875 114.411C340.2 113.695 340.594 113.012 341.051 112.372C341.562 111.662 342.14 111.001 342.777 110.401C343.54 109.69 344.387 109.073 345.297 108.564C346.466 107.845 347.784 107.404 349.15 107.276C349.727 107.236 350.306 107.315 350.851 107.508C351.397 107.7 351.897 108.002 352.321 108.396C353.378 109.42 354.15 110.702 354.561 112.115C355.186 114.254 355.499 116.473 355.491 118.701C355.491 119.374 355.491 120.315 355.491 121.502C355.491 122.689 355.491 123.642 355.491 124.358C355.452 126.934 355.141 129.499 354.561 132.009C354.042 134.171 353.291 136.271 352.321 138.271C351.49 140.011 350.423 141.629 349.15 143.077C348.04 144.332 346.739 145.405 345.297 146.258ZM347.336 128.178C347.425 126.877 347.425 125.57 347.336 124.269C347.331 122.979 346.971 121.715 346.294 120.617C345.689 119.754 344.67 119.732 343.247 120.55C342.589 120.937 342.008 121.442 341.533 122.04C341.049 122.648 340.643 123.314 340.323 124.022C340.01 124.745 339.763 125.495 339.584 126.263C339.398 126.998 339.275 127.747 339.214 128.503C339.158 129.231 339.125 130.071 339.125 131.001C339.125 131.931 339.125 132.726 339.214 133.387C339.261 134.005 339.386 134.615 339.584 135.202C339.736 135.699 339.987 136.16 340.323 136.557C340.637 136.901 341.069 137.113 341.533 137.151C342.142 137.161 342.74 136.985 343.247 136.647C344.65 135.85 345.729 134.585 346.294 133.073C346.901 131.508 347.253 129.855 347.336 128.178Z" fill="#1E2128"/>
<path d="M373.133 118.589C373.133 118.074 373.021 117.749 372.797 117.593C372.437 117.452 372.037 117.452 371.677 117.593C370.943 117.778 370.221 118.006 369.515 118.276C368.63 118.601 367.521 118.97 366.154 119.396C363.854 120.068 362.084 119.784 360.845 118.545C359.601 117.312 358.985 115.106 358.985 111.947C358.994 110.3 359.255 108.664 359.758 107.096C360.288 105.417 361.01 103.805 361.909 102.291C362.854 100.719 363.982 99.2634 365.269 97.9557C366.563 96.6429 368.029 95.5123 369.627 94.5951C370.956 93.7734 372.432 93.2179 373.973 92.9596C375.126 92.7533 376.312 92.8381 377.423 93.2061C378.35 93.5476 379.137 94.1856 379.664 95.0208C380.236 95.9163 380.557 96.9493 380.593 98.0117C380.619 98.5404 380.503 99.0663 380.257 99.5351C380.082 99.9894 379.774 100.38 379.372 100.655L373.973 103.769C373.637 103.96 373.379 104.005 373.178 103.881C372.955 103.746 372.723 103.626 372.483 103.523C372.146 103.388 371.781 103.334 371.419 103.366C370.761 103.466 370.134 103.711 369.582 104.083C368.915 104.456 368.322 104.95 367.835 105.539C367.38 106.07 367.13 106.745 367.129 107.444C367.085 107.831 367.163 108.223 367.353 108.564C367.51 108.751 367.812 108.795 368.26 108.698C368.905 108.542 369.54 108.351 370.165 108.127C370.982 107.836 372.058 107.477 373.391 107.007C376.135 106.122 378.14 106.391 379.395 107.836C380.773 109.654 381.442 111.912 381.277 114.187C381.265 115.841 381.005 117.484 380.504 119.06C379.967 120.794 379.215 122.454 378.264 124C377.235 125.662 376.017 127.2 374.634 128.582C373.186 130.024 371.555 131.27 369.784 132.289C368.323 133.2 366.698 133.816 365.001 134.104C363.828 134.298 362.625 134.158 361.528 133.701C360.618 133.291 359.865 132.6 359.377 131.729C358.866 130.832 358.578 129.826 358.537 128.794C358.51 128.266 358.626 127.739 358.873 127.271C359.048 126.817 359.357 126.426 359.758 126.151L365.359 122.902C365.695 122.712 365.93 122.701 366.087 122.902C366.259 123.091 366.455 123.257 366.67 123.395C366.984 123.58 367.348 123.662 367.711 123.63C368.447 123.529 369.149 123.256 369.761 122.835C370.644 122.328 371.439 121.681 372.114 120.919C372.746 120.306 373.112 119.47 373.133 118.589Z" fill="#1E2128"/>
<path d="M393.622 100.778C393.614 101.309 393.492 101.833 393.263 102.313C393.092 102.745 392.79 103.113 392.401 103.366L386.688 106.67C386.56 106.765 386.402 106.81 386.244 106.797C386.085 106.785 385.937 106.716 385.825 106.603C385.691 106.451 385.59 106.273 385.529 106.08C385.467 105.888 385.446 105.684 385.467 105.483V75.3947C385.468 74.8625 385.59 74.3376 385.825 73.8601C385.996 73.4281 386.298 73.0601 386.688 72.8071L392.401 69.4465C392.528 69.3522 392.686 69.307 392.844 69.3194C393.003 69.3317 393.151 69.4007 393.263 69.5137C393.395 69.6667 393.495 69.8448 393.557 70.0373C393.618 70.2297 393.64 70.4327 393.622 70.6339V100.778ZM393.622 115.789C393.615 116.32 393.493 116.844 393.263 117.323C393.092 117.755 392.79 118.123 392.401 118.376L386.688 121.681C386.56 121.775 386.402 121.82 386.244 121.808C386.085 121.796 385.937 121.727 385.825 121.614C385.691 121.462 385.59 121.284 385.528 121.091C385.466 120.898 385.445 120.695 385.467 120.493V113.436C385.468 112.904 385.59 112.379 385.825 111.902C385.996 111.47 386.298 111.102 386.688 110.849L392.401 107.488C392.528 107.394 392.686 107.349 392.844 107.361C393.003 107.373 393.151 107.442 393.263 107.555C393.395 107.709 393.494 107.887 393.556 108.079C393.617 108.271 393.64 108.474 393.622 108.675V115.789Z" fill="#1E2128"/>
</svg>
