<svg width="24" height="29" viewBox="0 0 24 29" fill="none" xmlns="http://www.w3.org/2000/svg">
<path d="M1 11.5328C1 18.9146 7.66993 25.019 10.6222 27.3595C11.0447 27.6944 11.2585 27.8639 11.5737 27.9498C11.8192 28.0167 12.1805 28.0167 12.4259 27.9498C12.7417 27.8637 12.954 27.6959 13.3781 27.3597C16.3304 25.0193 23 18.9153 23 11.5335C23 8.7399 21.8411 6.06042 19.7782 4.08508C17.7153 2.10974 14.9176 1 12.0002 1C9.08279 1 6.28476 2.1099 4.22184 4.08525C2.15893 6.06059 1 8.73922 1 11.5328Z" stroke="white" stroke-width="1.5" stroke-linecap="round" stroke-linejoin="round"/>
<path d="M8.85719 10.1287C8.85719 11.8093 10.2643 13.1716 12.0001 13.1716C13.7358 13.1716 15.1429 11.8093 15.1429 10.1287C15.1429 8.44816 13.7358 7.0858 12.0001 7.0858C10.2643 7.0858 8.85719 8.44816 8.85719 10.1287Z" stroke="white" stroke-width="1.5" stroke-linecap="round" stroke-linejoin="round"/>
</svg>
