<svg width="54" height="54" viewBox="0 0 54 54" fill="none" xmlns="http://www.w3.org/2000/svg">
<path d="M36 36C36 36 32.625 31.5 27 31.5C21.375 31.5 18 36 18 36M33.75 20.25H33.7725M20.25 20.25H20.2725M49.5 27C49.5 39.4264 39.4264 49.5 27 49.5C14.5736 49.5 4.5 39.4264 4.5 27C4.5 14.5736 14.5736 4.5 27 4.5C39.4264 4.5 49.5 14.5736 49.5 27ZM34.875 20.25C34.875 20.8713 34.3713 21.375 33.75 21.375C33.1287 21.375 32.625 20.8713 32.625 20.25C32.625 19.6287 33.1287 19.125 33.75 19.125C34.3713 19.125 34.875 19.6287 34.875 20.25ZM21.375 20.25C21.375 20.8713 20.8713 21.375 20.25 21.375C19.6287 21.375 19.125 20.8713 19.125 20.25C19.125 19.6287 19.6287 19.125 20.25 19.125C20.8713 19.125 21.375 19.6287 21.375 20.25Z" stroke="#1E2128" stroke-width="2" stroke-linecap="round" stroke-linejoin="round"/>
</svg>
