<?xml version="1.0" standalone="no"?>
<!DOCTYPE svg PUBLIC "-//W3C//DTD SVG 20010904//EN"
 "http://www.w3.org/TR/2001/REC-SVG-20010904/DTD/svg10.dtd">
<svg version="1.0" xmlns="http://www.w3.org/2000/svg"
 width="1427.000000pt" height="606.000000pt" viewBox="0 0 1427.000000 606.000000"
 preserveAspectRatio="xMidYMid meet">
<metadata>
Created by potrace 1.16, written by Peter Selinger 2001-2019
</metadata>
<g transform="translate(0.000000,606.000000) scale(0.100000,-0.100000)"
fill="#000000" stroke="none">
<path d="M3700 5671 c0 -5 -15 -14 -33 -20 -71 -24 -157 -158 -157 -244 0 -25
-7 -61 -15 -80 -17 -41 -20 -181 -5 -221 7 -19 6 -29 -6 -40 -13 -14 -9 -18
35 -40 59 -31 65 -37 46 -62 -12 -17 -26 -19 -155 -17 -90 2 -147 7 -156 14
-8 6 -14 26 -14 45 0 49 -17 83 -46 94 -31 12 -48 -5 -58 -54 -7 -35 -52 -96
-70 -96 -35 0 -20 -58 39 -156 18 -31 18 -32 -2 -90 -121 -334 -125 -354 -133
-674 -5 -176 -11 -267 -20 -294 -13 -36 -13 -39 9 -57 13 -11 22 -21 20 -22
-19 -12 -111 -67 -113 -67 -2 0 -6 19 -9 42 -3 26 -15 51 -31 67 l-26 26 -175
0 -175 0 -27 -28 -28 -27 0 -960 0 -960 28 -27 27 -28 190 0 190 0 27 28 28
27 3 628 2 628 55 66 c175 211 435 290 649 198 64 -27 149 -110 175 -170 36
-84 41 -167 41 -763 0 -377 4 -585 10 -598 23 -41 60 -49 235 -49 181 0 211 7
233 55 9 19 12 187 12 646 0 521 -2 632 -16 695 l-15 75 53 117 c29 64 67 142
85 172 61 103 156 323 161 373 4 40 0 53 -24 88 -55 79 -98 88 -109 22 -15
-90 -22 -100 -72 -107 -93 -13 -302 -7 -341 10 -20 8 -70 22 -111 29 -40 8
-80 20 -87 26 -17 14 -18 38 -1 43 6 3 47 15 90 27 90 28 104 50 27 47 -34 -2
-55 3 -65 13 -20 20 -35 113 -35 218 0 76 3 89 30 133 17 26 30 55 30 63 0 8
-14 30 -31 49 l-31 35 27 68 c15 38 34 73 42 80 8 6 23 38 33 70 l19 58 -34
31 c-41 36 -44 59 -12 75 28 15 119 91 172 145 22 22 52 49 66 60 38 29 68 93
78 171 18 135 -18 237 -113 322 -56 51 -109 81 -141 81 -19 0 -20 -35 -1 -88
10 -27 11 -44 5 -48 -6 -3 -36 -3 -68 1 -32 4 -84 2 -116 -4 -32 -6 -61 -9
-64 -6 -3 3 3 34 12 69 21 81 22 76 -13 76 -16 0 -30 -4 -30 -9z m75 -987 c6
-61 4 -77 -13 -110 -11 -22 -25 -58 -31 -80 -18 -69 -53 -81 -85 -31 -8 13 -4
23 19 47 33 34 43 85 44 217 1 45 4 89 8 99 11 30 50 -64 58 -142z m-99 -1034
c68 -21 72 -24 77 -56 3 -18 24 -60 46 -93 23 -33 41 -62 41 -66 0 -3 -26 8
-57 24 -106 53 -187 73 -323 78 -146 6 -240 -9 -353 -58 -40 -17 -78 -33 -86
-36 -8 -4 9 22 38 56 28 35 55 76 58 93 7 33 37 49 141 73 100 22 324 14 418
-15z m-796 -213 c0 -21 8 -41 20 -52 25 -23 17 -34 -55 -75 -76 -44 -145 -38
-145 11 0 19 47 62 59 54 4 -2 30 18 56 45 27 28 53 50 57 50 4 0 8 -15 8 -33z"/>
<path d="M7425 4571 c-11 -5 -29 -19 -40 -31 -20 -22 -20 -36 -20 -1406 l0
-1384 28 -27 27 -28 190 0 190 0 27 28 28 27 3 628 2 628 55 66 c107 128 248
213 381 228 92 10 204 -2 267 -29 65 -28 150 -110 176 -171 36 -84 41 -167 41
-763 0 -377 4 -585 10 -598 23 -41 60 -49 235 -49 184 0 213 7 234 58 9 21 11
193 8 683 -3 641 -4 656 -25 732 -92 322 -326 532 -663 598 -111 22 -289 15
-402 -15 -104 -28 -195 -65 -264 -109 -24 -15 -45 -27 -48 -27 -2 0 -6 205 -7
455 l-3 455 -28 27 -27 28 -178 2 c-97 1 -186 -1 -197 -6z m1221 -921 c68 -21
72 -24 77 -56 3 -18 24 -60 46 -93 23 -33 41 -62 41 -66 0 -3 -26 8 -57 24
-104 52 -188 73 -319 78 -145 7 -249 -11 -368 -63 -44 -19 -81 -34 -84 -34 -2
0 19 26 47 57 29 32 57 74 63 94 10 35 15 38 82 57 104 30 108 31 261 27 109
-2 156 -8 211 -25z m-759 -181 c1 -18 10 -40 19 -50 9 -10 14 -25 11 -32 -7
-19 -124 -77 -154 -77 -35 0 -63 18 -63 40 0 18 43 60 62 60 6 0 33 20 60 45
28 25 53 45 57 45 3 0 7 -14 8 -31z"/>
<path d="M4822 4504 c-62 -20 -134 -80 -164 -138 -25 -49 -35 -163 -19 -221
45 -167 237 -249 410 -174 128 55 190 206 146 355 -42 142 -217 225 -373 178z
m161 -91 c3 -5 -1 -37 -7 -73 l-12 -65 -45 0 -44 0 -11 55 c-6 30 -13 60 -14
65 -5 22 2 25 64 25 36 0 67 -3 69 -7z"/>
<path d="M913 3770 c-125 -12 -255 -36 -387 -70 -162 -42 -221 -66 -234 -96
-16 -34 -16 -354 -1 -388 7 -13 25 -30 42 -37 33 -14 41 -12 203 44 123 44
234 65 392 76 230 16 358 -13 451 -102 48 -46 101 -146 101 -190 0 -26 -3 -28
-27 -23 -147 29 -390 42 -524 27 -315 -34 -564 -149 -679 -312 -128 -184 -155
-435 -70 -661 64 -171 246 -312 475 -370 117 -29 337 -31 464 -5 162 35 327
98 413 158 l27 19 49 -49 c83 -83 191 -124 327 -124 139 0 293 43 313 89 16
33 16 304 1 338 -18 39 -60 51 -122 37 -29 -7 -72 -11 -97 -9 l-45 3 -6 465
c-7 500 -10 537 -68 691 -78 206 -248 365 -471 437 -153 50 -346 69 -527 52z
m337 -100 c36 -6 95 -19 131 -30 63 -19 67 -22 72 -54 3 -19 22 -59 43 -90 20
-31 35 -59 32 -61 -3 -3 -39 11 -80 30 -43 20 -119 45 -174 57 -143 29 -414
21 -594 -18 -172 -37 -161 -38 -176 21 -8 28 -14 55 -14 62 0 19 203 62 405
86 68 9 295 6 355 -3z m170 -774 c123 -21 124 -22 140 -51 7 -13 26 -27 41
-30 66 -15 36 -55 -41 -55 -25 0 -100 8 -165 17 -167 23 -432 23 -550 -1 -105
-21 -221 -64 -289 -106 -27 -17 -51 -28 -54 -25 -3 3 5 20 18 38 56 75 90 130
90 147 0 19 94 51 224 76 96 18 455 12 586 -10z m-55 -341 c61 -8 111 -15 113
-15 1 0 2 -54 2 -119 l0 -120 -57 -47 c-68 -55 -192 -117 -283 -140 -82 -22
-278 -24 -335 -5 -71 24 -132 69 -154 115 -41 84 -18 197 52 250 44 34 143 74
210 85 84 14 333 12 452 -4z m-3 -522 c29 3 67 9 83 12 l30 6 -25 -21 c-40
-35 -152 -88 -244 -115 -163 -47 -378 -52 -493 -11 -57 20 -117 52 -132 70
-12 14 -6 15 49 15 48 -1 69 4 89 19 26 19 31 19 87 6 111 -26 335 -9 444 34
19 7 29 6 42 -5 13 -12 31 -14 70 -10z m733 -32 c-13 -14 -35 -42 -48 -61 -22
-33 -26 -35 -73 -32 -98 5 -154 44 -84 59 17 3 42 17 56 32 22 23 32 26 99 27
l74 1 -24 -26z"/>
<path d="M6170 3774 c-461 -50 -710 -267 -710 -618 0 -158 42 -268 144 -374
135 -142 229 -186 691 -327 224 -68 345 -141 345 -209 0 -100 -207 -153 -500
-128 -181 16 -270 40 -426 117 -145 72 -181 79 -219 41 -31 -31 -38 -83 -34
-249 5 -169 7 -173 150 -245 169 -85 435 -142 662 -142 270 0 551 85 687 207
112 100 170 239 170 403 0 196 -86 360 -246 471 -88 60 -315 148 -623 240
-152 46 -221 77 -268 122 -40 38 -49 74 -29 121 13 30 27 42 82 68 63 29 77
32 198 36 213 7 388 -31 560 -121 94 -49 136 -52 175 -13 l26 26 0 173 c0 151
-2 176 -18 201 -37 56 -277 146 -477 179 -99 17 -279 28 -340 21z m385 -122
c141 -31 198 -54 206 -83 10 -35 10 -97 1 -103 -5 -3 -43 6 -86 20 -288 91
-611 79 -813 -32 -35 -18 -63 -31 -63 -29 0 3 20 37 45 77 25 40 45 82 45 94
0 26 53 47 173 70 102 19 373 12 492 -14z m-313 -781 c74 -22 193 -61 265 -87
l130 -47 55 -76 c61 -84 82 -120 75 -128 -3 -2 -31 9 -63 25 -99 50 -230 98
-453 167 -210 65 -301 102 -351 143 l-25 21 85 -5 c68 -5 89 -3 105 10 11 8
25 16 31 16 6 0 72 -18 146 -39z m-597 -708 c38 -22 65 -44 65 -53 0 -25 10
-30 34 -18 17 7 43 4 107 -16 142 -43 273 -59 454 -53 88 3 186 12 218 20 31
8 57 11 57 6 0 -17 60 -39 105 -39 25 0 45 -4 45 -10 0 -5 -19 -20 -42 -34
-142 -81 -431 -106 -697 -60 -117 20 -271 73 -297 101 -24 26 -126 193 -118
193 3 0 34 -17 69 -37z"/>
<path d="M10461 3769 c-160 -19 -328 -75 -451 -149 -277 -167 -424 -380 -485
-705 -26 -137 -17 -365 19 -505 49 -188 124 -320 255 -450 80 -79 181 -151
281 -201 90 -46 117 -51 148 -31 39 24 42 30 42 104 0 55 3 66 14 62 8 -3 16
-15 18 -27 4 -28 21 -25 30 5 4 17 6 12 7 -19 1 -35 -2 -41 -15 -36 -19 7 -34
-13 -34 -45 0 -12 -15 -38 -32 -57 -39 -40 -268 -159 -346 -180 -64 -16 -86
-35 -118 -97 -13 -25 -41 -67 -63 -92 -55 -63 -237 -332 -294 -432 -28 -49
-44 -89 -41 -101 7 -27 -74 -147 -90 -134 -17 14 -136 -56 -136 -80 0 -23 20
-29 100 -29 91 0 108 14 120 99 6 40 19 78 36 105 30 46 212 229 317 319 37
32 86 85 108 118 49 72 75 77 72 14 -1 -22 -4 -98 -6 -170 -5 -144 -9 -170
-43 -300 -28 -107 -28 -99 -9 -91 19 7 19 -5 0 -51 -21 -49 -45 -74 -64 -69
-18 6 -153 -63 -158 -80 -6 -18 54 -34 129 -34 90 0 110 18 128 116 19 99 32
134 109 274 38 69 84 166 101 215 18 50 37 102 42 117 5 14 22 31 36 36 16 6
208 13 452 16 234 3 439 10 455 14 35 10 60 52 51 88 -11 44 -41 64 -94 64
-78 0 -84 12 -80 166 2 71 0 141 -5 156 -6 22 -4 26 7 22 23 -9 148 49 243
112 198 131 331 304 397 512 77 245 75 516 -5 757 -111 333 -418 587 -797 659
-105 20 -260 27 -351 15z m299 -99 c36 -6 98 -20 139 -32 69 -20 74 -24 91
-62 10 -23 48 -74 84 -115 36 -41 64 -76 62 -78 -2 -2 -27 10 -56 28 -141 87
-288 124 -490 124 -202 0 -350 -38 -493 -126 -27 -16 -51 -29 -53 -27 -2 2 26
38 63 79 36 40 74 92 84 115 16 35 25 42 76 58 135 43 348 58 493 36z m34
-399 c80 -22 186 -91 248 -160 22 -25 58 -82 80 -127 73 -152 76 -373 7 -539
-26 -62 -30 -81 -20 -94 40 -55 51 -80 50 -111 l-1 -35 -8 34 c-4 18 -18 47
-31 65 -13 17 -43 60 -68 96 -85 125 -111 151 -145 148 -26 -3 -30 -7 -28 -27
8 -54 -4 -68 -63 -74 -62 -6 -120 6 -129 28 -3 8 6 27 20 42 13 15 22 33 20
40 -3 8 0 39 8 71 16 71 5 188 -25 249 -35 72 -151 163 -208 163 -18 0 -20 -4
-15 -25 15 -61 17 -60 -81 -56 -49 2 -93 5 -97 7 -3 2 -4 22 -1 44 5 34 3 40
-13 40 -11 -1 -50 -22 -89 -48 -82 -56 -111 -104 -125 -205 -12 -83 17 -287
53 -380 14 -34 28 -80 31 -102 l6 -40 -41 45 c-90 98 -124 204 -124 390 0 112
4 147 22 206 63 198 232 340 447 375 76 12 242 2 320 -20z m-489 -1651 c0 -8
-16 -23 -35 -32 -294 -142 -330 -156 -330 -124 0 20 53 62 97 76 21 7 64 28
95 47 83 51 173 68 173 33z"/>
<path d="M12940 3770 c-183 -23 -366 -95 -500 -195 l-35 -26 -6 61 c-5 49 -12
67 -33 88 l-26 27 -175 0 -175 0 -27 -28 -28 -27 0 -1379 c0 -1486 -3 -1415
52 -1440 33 -15 354 -15 387 0 55 25 56 37 56 534 l0 457 28 -18 c125 -83 190
-111 342 -150 180 -46 369 -42 558 12 216 63 413 213 546 417 66 101 97 171
131 300 87 323 32 675 -146 939 -99 148 -285 298 -443 359 -155 60 -361 88
-506 69z m315 -109 c124 -26 142 -34 149 -68 4 -16 31 -61 61 -101 30 -39 55
-74 55 -77 0 -3 -36 13 -80 35 -138 69 -210 85 -400 85 -187 0 -239 -10 -379
-76 l-83 -39 44 53 c62 73 78 98 78 123 0 18 12 25 75 43 105 32 154 38 280
40 73 0 140 -6 200 -18z m-813 -317 l19 -22 -33 -25 c-94 -70 -188 -78 -188
-16 0 19 47 62 59 54 4 -2 30 18 57 46 l49 50 8 -33 c5 -18 18 -43 29 -54z
m769 -69 c157 -53 282 -178 340 -341 27 -75 37 -270 20 -370 -40 -225 -228
-411 -451 -445 -145 -22 -297 6 -419 78 -80 48 -179 144 -231 224 l-40 62 0
226 0 226 40 61 c105 161 294 286 455 303 111 11 208 3 286 -24z m-557 -1242
c33 -4 53 -1 71 11 25 16 31 16 114 -3 116 -28 251 -28 356 -1 68 17 80 18 94
6 32 -29 108 -29 184 -1 40 16 13 -16 -46 -53 -265 -167 -673 -135 -902 72
l-40 36 62 -31 c34 -17 82 -34 107 -36z"/>
<path d="M4735 3721 c-11 -5 -29 -19 -40 -31 -20 -22 -20 -36 -20 -981 l0
-959 28 -27 27 -28 190 0 190 0 27 28 28 27 0 960 0 960 -28 27 -27 28 -178 2
c-97 1 -186 -1 -197 -6z"/>
</g>
</svg>
