<?xml version="1.0" standalone="no"?>
<!DOCTYPE svg PUBLIC "-//W3C//DTD SVG 20010904//EN"
 "http://www.w3.org/TR/2001/REC-SVG-20010904/DTD/svg10.dtd">
<svg version="1.0" xmlns="http://www.w3.org/2000/svg"
 width="299.000000pt" height="297.000000pt" viewBox="0 0 299.000000 297.000000"
 preserveAspectRatio="xMidYMid meet">
<metadata>
Created by potrace 1.16, written by Peter Selinger 2001-2019
</metadata>
<g transform="translate(0.000000,297.000000) scale(0.100000,-0.100000)"
fill="#000000" stroke="none">
<path d="M1180 2653 c-189 -19 -550 -98 -635 -139 -59 -28 -65 -51 -65 -249 0
-205 8 -236 63 -254 31 -11 45 -8 138 27 190 71 311 97 523 111 245 18 391
-15 503 -113 48 -42 108 -156 118 -225 l6 -44 -38 7 c-253 43 -582 46 -766 6
-129 -27 -271 -79 -366 -132 -97 -55 -214 -170 -259 -255 -101 -191 -112 -474
-26 -678 73 -176 261 -320 504 -387 76 -20 106 -23 280 -23 181 0 203 2 310
29 149 37 246 75 354 136 l87 50 50 -55 c79 -86 224 -144 360 -145 65 0 208
26 273 50 78 30 86 51 86 232 0 116 -3 150 -18 178 -22 46 -57 58 -120 42 -67
-18 -162 -18 -173 -1 -5 8 -9 221 -9 474 0 273 -5 497 -11 550 -57 460 -337
738 -814 804 -71 10 -275 12 -355 4z m395 -104 c33 -6 93 -19 133 -31 62 -18
72 -24 72 -44 0 -12 23 -57 51 -99 28 -42 49 -78 46 -81 -3 -3 -31 8 -63 24
-168 84 -360 113 -604 93 -152 -13 -276 -33 -398 -63 -45 -11 -85 -18 -89 -15
-3 4 -9 23 -13 44 -4 21 -11 50 -14 64 -7 25 -6 26 101 52 285 69 567 90 778
56z m105 -854 c157 -21 209 -34 221 -56 5 -11 27 -27 47 -37 44 -21 47 -42 8
-61 -30 -14 -67 -11 -291 19 -328 44 -623 10 -851 -99 -57 -27 -104 -46 -104
-42 0 5 27 43 60 86 33 43 63 89 66 101 10 38 158 83 339 104 102 11 369 4
505 -15z m-115 -365 c55 -5 137 -15 183 -21 l82 -12 0 -137 0 -138 -67 -54
c-85 -68 -122 -90 -214 -128 -164 -68 -417 -80 -535 -26 -115 53 -157 113
-157 226 0 84 12 117 65 166 112 106 348 152 643 124z m39 -595 c25 -19 89
-19 141 0 88 32 87 13 -2 -42 -255 -156 -632 -194 -848 -86 -41 21 -95 62 -95
73 0 5 24 6 54 3 62 -6 98 0 120 23 13 13 22 13 49 5 113 -38 325 -32 474 13
43 13 80 24 83 24 3 1 14 -5 24 -13z m896 -59 c-15 -22 -35 -53 -44 -68 -15
-26 -22 -28 -77 -28 -64 0 -127 22 -136 48 -7 16 13 32 43 32 11 0 32 12 47
28 24 25 32 27 110 28 l85 1 -28 -41z"/>
</g>
</svg>
